<svg width="132" height="19" viewBox="0 0 132 19" fill="none" xmlns="http://www.w3.org/2000/svg">
<path d="M4.592 14.832H9.968V18H0.488V1.152H4.592V14.832ZM16.0295 4.44V7.848H21.5255V11.016H16.0295V14.712H22.2455V18H11.9255V1.152H22.2455V4.44H16.0295ZM31.0059 18.168C29.7739 18.168 28.6699 17.968 27.6939 17.568C26.7179 17.168 25.9339 16.576 25.3419 15.792C24.7659 15.008 24.4619 14.064 24.4299 12.96H28.7979C28.8619 13.584 29.0779 14.064 29.4459 14.4C29.8139 14.72 30.2939 14.88 30.8859 14.88C31.4939 14.88 31.9739 14.744 32.3259 14.472C32.6779 14.184 32.8539 13.792 32.8539 13.296C32.8539 12.88 32.7099 12.536 32.4219 12.264C32.1499 11.992 31.8059 11.768 31.3899 11.592C30.9899 11.416 30.4139 11.216 29.6619 10.992C28.5739 10.656 27.6859 10.32 26.9979 9.984C26.3099 9.648 25.7179 9.152 25.2219 8.496C24.7259 7.84 24.4779 6.984 24.4779 5.928C24.4779 4.36 25.0459 3.136 26.1819 2.256C27.3179 1.36 28.7979 0.912 30.6219 0.912C32.4779 0.912 33.9739 1.36 35.1099 2.256C36.2459 3.136 36.8539 4.368 36.9339 5.952H32.4939C32.4619 5.408 32.2619 4.984 31.8939 4.68C31.5259 4.36 31.0539 4.2 30.4779 4.2C29.9819 4.2 29.5819 4.336 29.2779 4.608C28.9739 4.864 28.8219 5.24 28.8219 5.736C28.8219 6.28 29.0779 6.704 29.5899 7.008C30.1019 7.312 30.9019 7.64 31.9899 7.992C33.0779 8.36 33.9579 8.712 34.6299 9.048C35.3179 9.384 35.9099 9.872 36.4059 10.512C36.9019 11.152 37.1499 11.976 37.1499 12.984C37.1499 13.944 36.9019 14.816 36.4059 15.6C35.9259 16.384 35.2219 17.008 34.2939 17.472C33.3659 17.936 32.2699 18.168 31.0059 18.168ZM57.6014 6.576C57.6014 7.552 57.3774 8.448 56.9294 9.264C56.4814 10.064 55.7934 10.712 54.8654 11.208C53.9374 11.704 52.7854 11.952 51.4094 11.952H48.8654V18H44.7614V1.152H51.4094C52.7534 1.152 53.8894 1.384 54.8174 1.848C55.7454 2.312 56.4414 2.952 56.9054 3.768C57.3694 4.584 57.6014 5.52 57.6014 6.576ZM51.0974 8.688C51.8814 8.688 52.4654 8.504 52.8494 8.136C53.2334 7.768 53.4254 7.248 53.4254 6.576C53.4254 5.904 53.2334 5.384 52.8494 5.016C52.4654 4.648 51.8814 4.464 51.0974 4.464H48.8654V8.688H51.0974ZM70.226 15.024H63.938L62.93 18H58.634L64.73 1.152H69.482L75.578 18H71.234L70.226 15.024ZM69.17 11.856L67.082 5.688L65.018 11.856H69.17ZM89.5533 1.152V4.44H85.0893V18H80.9853V4.44H76.5213V1.152H89.5533ZM103.733 1.152V4.44H99.269V18H95.165V4.44H90.701V1.152H103.733ZM109.897 4.44V7.848H115.393V11.016H109.897V14.712H116.113V18H105.793V1.152H116.113V4.44H109.897ZM124.873 18.168C123.641 18.168 122.537 17.968 121.561 17.568C120.585 17.168 119.801 16.576 119.209 15.792C118.633 15.008 118.329 14.064 118.297 12.96H122.665C122.729 13.584 122.945 14.064 123.313 14.4C123.681 14.72 124.161 14.88 124.753 14.88C125.361 14.88 125.841 14.744 126.193 14.472C126.545 14.184 126.721 13.792 126.721 13.296C126.721 12.88 126.577 12.536 126.289 12.264C126.017 11.992 125.673 11.768 125.257 11.592C124.857 11.416 124.281 11.216 123.529 10.992C122.441 10.656 121.553 10.32 120.865 9.984C120.177 9.648 119.585 9.152 119.089 8.496C118.593 7.84 118.345 6.984 118.345 5.928C118.345 4.36 118.913 3.136 120.049 2.256C121.185 1.36 122.665 0.912 124.489 0.912C126.345 0.912 127.841 1.36 128.977 2.256C130.113 3.136 130.721 4.368 130.801 5.952H126.361C126.329 5.408 126.129 4.984 125.761 4.68C125.393 4.36 124.921 4.2 124.345 4.2C123.849 4.2 123.449 4.336 123.145 4.608C122.841 4.864 122.689 5.24 122.689 5.736C122.689 6.28 122.945 6.704 123.457 7.008C123.969 7.312 124.769 7.64 125.857 7.992C126.945 8.36 127.825 8.712 128.497 9.048C129.185 9.384 129.777 9.872 130.273 10.512C130.769 11.152 131.017 11.976 131.017 12.984C131.017 13.944 130.769 14.816 130.273 15.6C129.793 16.384 129.089 17.008 128.161 17.472C127.233 17.936 126.137 18.168 124.873 18.168Z" fill="white"/>
</svg>
